<svg width="120" height="120" xmlns="http://www.w3.org/2000/svg"><g fill="none" fill-rule="evenodd"><path d="M90.8584 51.0586c.346-3.112-.969-9.08-2.01-12.015-1.055-2.977-3.244-8.331-6.598-12.674 1.646-2.29 2.405-5.105 2.105-7.957-.621-5.911-5.566-10.369-11.503-10.369-.405 0-.816.022-1.222.065-4.973.522-8.939 4.111-10.048 8.832-.729-.028-1.453-.042-2.162-.042-5.453 0-10.307.814-14.463 2.423-1.989-3.703-5.849-6.072-10.174-6.072-.973 0-1.948.124-2.899.37-2.994.773-5.508 2.667-7.078 5.332-1.571 2.664-2.01 5.78-1.236 8.774.772 2.987 2.693 5.507 5.301 7.053-1.055 2.419-1.535 4.532-1.814 6.019-.623 3.314-2.519 13.398 5.355 20.728 3.209 2.988 6.673 4.841 10.937 5.801-3.557 4.887-7.225 11.137-8.02 16.944-.348 2.543-.027 4.749.956 6.576l-.149.356c-.034.081-.062.165-.086.25-.314 1.165-.024 2.397.779 3.294.673.754 1.639 1.187 2.65 1.187.043 0 .087-.001.13-.002.27.406.626.758 1.053 1.029.518.33 1.109.518 1.719.55l-1.044 4.167c-.571 2.283.813 4.636 3.086 5.245l10.106 2.708c.372.1.753.151 1.132.151 1.3 0 2.521-.582 3.351-1.596.825-1.008 1.151-2.319.894-3.6-.013-.064-.007-.13.016-.189l1.1-2.828 3.73 6.219c.779 1.3 2.206 2.109 3.722 2.109.759 0 1.509-.201 2.168-.582l9.061-5.232c1.308-.755 2.119-2.108 2.167-3.619.03-.959-.249-1.873-.779-2.627.6-.051 1.175-.255 1.679-.594.42-.284.766-.645 1.025-1.059h.034c1.048 0 2.037-.459 2.714-1.259.777-.921 1.034-2.16.686-3.317-.025-.084-.056-.166-.092-.246l-.158-.351c.933-1.853 1.194-4.067.777-6.599-1.182-7.17-6.762-14.845-10.839-19.647 1.555-.528 3.06-1.122 4.546-1.792 6.708-3.028 9.062-8.914 9.395-11.914" fill="#000" fill-rule="nonzero"/><path d="M75.6455 89.1016c-.184-.574-.715-.941-1.288-.941-.136 0-.274.021-.412.065-.513.163-.856.606-.924 1.106l-.005-.001-.148 1.094.591.081c.247.222.56.362.898.362.136 0 .275-.022.412-.066.073-.023.141-.055.207-.09l.572.078.15-1.093-.005-.001c.026-.194.015-.395-.048-.594" fill="#C1C1C1" fill-rule="nonzero"/><path d="M74.3574 88.3604c.504 0 .944.322 1.098.803.093.293.068.605-.074.879-.14.273-.379.475-.673.569-.115.037-.233.056-.351.056-.504 0-.944-.323-1.098-.803-.093-.293-.068-.606.074-.879.14-.273.379-.476.673-.569.115-.037.233-.056.351-.056" fill="#FFF" fill-rule="nonzero"/><path d="M74.209 89.2549c-.137 0-.275.021-.412.064-.712.228-1.105.989-.877 1.701.184.574.716.941 1.288.941.137 0 .275-.021.412-.064.712-.228 1.105-.99.877-1.701-.184-.575-.716-.941-1.288-.941" fill="#C1C1C1" fill-rule="nonzero"/><path d="M74.209 89.4541c.503 0 .944.323 1.098.803.093.293.067.605-.074.879-.141.273-.38.476-.673.57-.115.036-.233.055-.352.055-.503 0-.944-.323-1.098-.802-.193-.606.142-1.256.747-1.449.115-.037.233-.056.352-.056" fill="#FFF" fill-rule="nonzero"/><path d="M79.0898 93.3828l-.159-1.291c-.039-.16-.103-.313-.191-.453-.285-.459-.778-.733-1.319-.733-.289 0-.572.081-.819.236-.448.278-.721.771-.731 1.294l.167 1.488c.039.161.103.313.191.454.285.458.778.732 1.319.732.289 0 .572-.081.819-.236.449-.278.721-.771.731-1.293l-.008-.198" fill="#C1C1C1" fill-rule="nonzero"/><path d="M77.4209 91.1064c.452 0 .894.227 1.149.638.111.176.174.369.196.563h.001l.124 1.097-.001.001c.055.502-.171 1.014-.628 1.3-.223.137-.47.204-.714.204-.452 0-.894-.226-1.149-.638-.111-.177-.173-.369-.196-.563l-.123-1.097c-.056-.502.17-1.016.627-1.3.223-.139.47-.205.714-.205" fill="#FFF" fill-rule="nonzero"/><path d="M80.6191 91.6523c-.31 0-.609.092-.867.266-.437.295-.692.796-.683 1.318l.221 1.481c.045.161.114.31.207.448.289.428.77.684 1.288.684.31 0 .609-.092.867-.265.438-.295.693-.797.683-1.319l-.223-1.487c-.044-.157-.112-.306-.205-.441-.289-.429-.77-.685-1.288-.685" fill="#C1C1C1" fill-rule="nonzero"/><path d="M80.6191 91.8525c.435 0 .861.209 1.123.596.116.173.186.363.215.556h.002l.163 1.092h-.001c.074.499-.134 1.021-.58 1.321-.233.157-.495.232-.756.232-.435 0-.861-.209-1.122-.596-.117-.173-.187-.363-.216-.556h-.001l-.164-1.092h.002c-.074-.499.133-1.021.58-1.322.232-.157.495-.231.755-.231" fill="#FFF" fill-rule="nonzero"/><path d="M83.376 90.0723c-.459 0-.892.201-1.187.551-.339.401-.449.953-.298 1.451l.617 1.371c.086.141.192.265.319.372.279.236.636.366 1.002.366.458 0 .891-.2 1.187-.549.339-.403.448-.954.298-1.452l-.618-1.371c-.086-.14-.192-.265-.319-.372-.279-.236-.636-.367-1.001-.367" fill="#C1C1C1" fill-rule="nonzero"/><path d="M83.376 90.2725c.308 0 .618.104.872.319.159.135.278.299.358.477h.001l.456 1.006-.002.001c.208.46.149 1.017-.199 1.429-.267.317-.649.48-1.033.48-.308 0-.619-.106-.873-.32-.159-.134-.278-.298-.358-.477l-.001.001-.455-1.006.002-.001c-.208-.461-.15-1.018.198-1.43.267-.316.649-.479 1.034-.479" fill="#FFF" fill-rule="nonzero"/><path d="M70.2344 62.7129c1.397-.003 2.728.592 3.661 1.631 3.232 3.599 10.589 12.514 11.888 20.392 1.081 6.561-3.32 8.739-6.572 9.458-1.771.392-3.552-.624-4.142-2.338l-7.617-22.138-.726-1.904c-.936-2.459.876-5.096 3.508-5.101" fill="#222" fill-rule="nonzero"/><path d="M73.4531 87.1592c2.785-3.976 7.827-5.424 12.098-3.576-.068-.29-.143-.58-.225-.872-1.969-.727-4.119-.842-6.216-.306-2.371.605-4.447 1.981-5.944 3.918l.287.836zM81.123 73.8027c-.179-.283-.359-.563-.542-.841-1.802-.274-3.653-.09-5.401.564-2.074.775-3.824 2.142-5.068 3.923l.301.875c2.268-3.665 6.564-5.445 10.71-4.521" fill="#6D6D6D" fill-rule="nonzero"/><path d="M78.7031 102.3516l-9.061 5.23c-1.106.639-2.519.273-3.175-.822l-6.009-10.024c-2.276-3.797-1-8.723 2.834-10.937 4.086-2.358 9.315-.647 11.215 3.671l3.477 7.903c.18.41.474.758.845 1.006 1.444.961 1.377 3.105-.126 3.973" fill="#222" fill-rule="nonzero"/><path d="M55.0474 107.6992l-10.106-2.708c-1.233-.33-1.974-1.589-1.664-2.827l2.839-11.337c1.076-4.295 5.462-6.875 9.738-5.73 4.557 1.221 7.044 6.129 5.334 10.527l-3.129 8.047c-.162.417-.201.87-.114 1.308.342 1.701-1.222 3.169-2.898 2.72" fill="#222" fill-rule="nonzero"/><path d="M43.7451 85.7695c-.9 10.288 6.126 12.683 14.984 13.457 8.858.775 16.194-.362 17.093-10.65.901-10.289-3.787-30.145-13.45-30.991-9.663-.845-17.727 17.896-18.627 28.184" fill="#222" fill-rule="nonzero"/><path d="M70.9033 70.7187l-5.641-.507c-1.538.033-2.97.53-4.199 1.368h-.001s-1.227.673-1.627.817c-1.365.5-3.746 1.132-6.533.826-2.134-.234-3.956-.7-5.372-1.215-2.084 4.786-3.445 9.877-3.785 13.762-.198 2.263-.012 4.145.492 5.711.54-.185 1.032-.414 1.445-.7.855-.836 2.606-2.059 5.349-1.772 2.221.232 3.784 1.425 4.747 2.462 2.719 2.513 7.376 2.921 9.393 2.975.544.014 1.085.057 1.623.128 1.564.209 4.751.457 7.535-.429.778-1.459 1.294-3.289 1.493-5.569.393-4.484-.276-10.786-1.957-16.539-.868-.635-1.864-1.093-2.962-1.318" fill="#FFF" fill-rule="nonzero"/><path d="M75.9307 86.0664c-2.743.904-5.97.628-7.433.429-.55-.075-1.114-.122-1.673-.139-1.851-.056-6.43-.445-9.045-2.858-.981-1.056-2.648-2.362-5.04-2.62-2.946-.322-4.834 1.015-5.715 1.862-.781.528-1.868.847-3.032 1.035-.055.35-.104.693-.145 1.03 1.424-.204 2.796-.586 3.778-1.265l.065-.053c.741-.723 2.367-1.891 4.941-1.615 2.096.226 3.564 1.386 4.427 2.319l.027.027c2.861 2.655 7.742 3.078 9.708 3.137.525.016 1.052.06 1.569.13 1.484.202 4.679.474 7.547-.368.013-.343.02-.694.021-1.051" fill="#BBB" fill-rule="nonzero"/><path d="M69.3174 67.5928c-.159-.103-.347-.167-.549-.178-.203-.01-.396.033-.564.12l-1.944.991c-.174.088-.322.221-.429.385-.103.16-.167.346-.178.549l-.114 2.178c-.011.203.034.396.12.564.089.175.221.323.386.43l1.829 1.188c.159.103.346.168.548.178.204.011.397-.034.565-.12l1.943-.99c.175-.089.323-.223.43-.387.103-.158.167-.346.178-.549l.114-2.177c.011-.203-.034-.396-.12-.565-.089-.174-.222-.322-.386-.429l-1.829-1.188z" fill="#0BF" fill-rule="nonzero"/><path d="M69.9785 69.1572c-.091-.006-.176.026-.238.083l-1 .9c-.067.06-.169.055-.229-.011l-.901-1.001c-.057-.063-.137-.104-.229-.107-.177-.007-.326.136-.336.314l-.134 2.572c-.009.176.119.332.295.348.183.015.341-.123.351-.306l.085-1.611c.003-.073.093-.104.141-.05l.572.635c.055.061.134.102.224.106.088.005.171-.027.233-.082l.635-.572c.053-.048.138-.008.135.064l-.084 1.604c-.009.175.12.332.294.346.184.017.342-.123.352-.304l.136-2.58c.009-.178-.124-.335-.302-.348" fill="#FFF" fill-rule="nonzero"/><path d="M44.2349 93.207c.025.52.312 1.002.765 1.268.238.138.509.212.783.212.55 0 1.064-.294 1.342-.768.084-.144.143-.297.177-.459l.126-1.493c-.023-.521-.31-1.006-.765-1.273-.238-.138-.509-.213-.783-.213v.201-.201c-.55 0-1.064.294-1.341.769-.083.142-.142.293-.177.453l-.127 1.504z" fill="#C1C1C1" fill-rule="nonzero"/><path d="M45.8794 90.6816c.232 0 .468.06.683.186.464.272.705.779.663 1.282h.001l-.094 1.099h-.002c-.016.196-.073.39-.179.57-.251.429-.704.669-1.168.669-.232 0-.467-.06-.682-.186-.465-.272-.706-.779-.663-1.282h-.002l.094-1.101.001.001c.017-.195.075-.389.18-.569.251-.43.704-.669 1.168-.669" fill="#FFF" fill-rule="nonzero"/><path d="M42.7031 91.3145c-.535 0-1.025.269-1.312.72-.088.138-.152.289-.192.447l-.182 1.493c.005.522.273 1.016.718 1.299.25.158.537.242.832.242.534 0 1.025-.269 1.311-.72.089-.138.153-.289.193-.448l.182-1.493c-.005-.52-.274-1.016-.718-1.298-.25-.159-.538-.242-.832-.242" fill="#C1C1C1" fill-rule="nonzero"/><path d="M42.7031 91.5137c.248 0 .5.068.725.212.454.289.676.804.615 1.305l.002.001-.134 1.095h-.001c-.024.194-.089.386-.201.562-.257.405-.695.627-1.142.627-.249 0-.5-.069-.725-.211-.454-.289-.676-.805-.616-1.306h-.001l.134-1.096h.001c.024-.194.089-.385.2-.561.258-.406.696-.628 1.143-.628" fill="#FFF" fill-rule="nonzero"/><path d="M39.9053 89.8096c-.382 0-.749.141-1.034.396-.124.11-.227.238-.309.38l-.58 1.388c-.136.502-.012 1.05.338 1.441.294.331.717.519 1.159.519.382 0 .749-.141 1.033-.395.123-.109.226-.235.308-.376l.582-1.392c.136-.502.012-1.05-.339-1.442-.294-.33-.716-.519-1.158-.519" fill="#C1C1C1" fill-rule="nonzero"/><path d="M39.9053 90.0098c.372 0 .742.152 1.009.452.359.402.432.958.238 1.424h.001l-.427 1.019-.001-.001c-.076.18-.19.347-.345.486-.259.23-.58.344-.901.344-.372 0-.742-.153-1.01-.452-.358-.402-.432-.958-.237-1.423l-.001-.001.426-1.018h.002c.076-.18.19-.347.345-.486.258-.231.58-.344.901-.344" fill="#FFF" fill-rule="nonzero"/><path d="M50.376 89.877l-.179-1.09-.004.001c-.083-.498-.437-.931-.954-1.081-.126-.036-.253-.054-.378-.054-.586 0-1.127.385-1.298.977-.058.2-.063.401-.032.595l-.004.001.179 1.088.57-.092c.067.032.136.062.209.084.126.036.253.053.378.053.35 0 .673-.149.921-.385l.592-.097z" fill="#C1C1C1" fill-rule="nonzero"/><path d="M48.8613 87.8535c.108 0 .216.016.322.046.295.085.54.281.688.551.149.269.183.581.098.877-.142.49-.597.832-1.107.832-.108 0-.216-.016-.321-.046-.296-.086-.54-.281-.689-.551-.149-.27-.183-.581-.097-.877.142-.49.597-.832 1.106-.832" fill="#FFF" fill-rule="nonzero"/><path d="M49.04 88.7432c-.586 0-1.127.385-1.298.976-.208.717.205 1.468.922 1.675.126.037.252.055.377.055.587 0 1.127-.385 1.299-.977.208-.717-.205-1.467-.923-1.675-.126-.037-.252-.054-.377-.054" fill="#C1C1C1" fill-rule="nonzero"/><path d="M49.04 88.9424c.108 0 .216.016.322.046.295.086.54.282.689.552.148.269.182.581.097.877-.142.489-.597.832-1.107.832-.108 0-.216-.016-.321-.046-.296-.086-.54-.282-.689-.552-.149-.27-.183-.581-.097-.877.142-.489.597-.832 1.106-.832" fill="#FFF" fill-rule="nonzero"/><path d="M52.2534 62.1035c-1.397.035-2.71.665-3.615 1.729-3.133 3.687-10.245 12.798-11.328 20.709-.902 6.588 3.558 8.645 6.827 9.276 1.782.344 3.534-.72 4.077-2.451l7.011-22.337.674-1.923c.869-2.484-1.016-5.069-3.646-5.003" fill="#222" fill-rule="nonzero"/><path d="M49.7017 86.6279c-2.892-3.898-7.972-5.209-12.19-3.245.06-.291.126-.584.2-.877 1.948-.78 4.095-.955 6.206-.476 2.386.54 4.499 1.859 6.049 3.755l-.265.843zM41.6709 73.4863c.171-.289.344-.574.519-.856 1.793-.324 3.649-.189 5.415.417 2.092.717 3.879 2.037 5.172 3.784l-.277.881c-2.367-3.601-6.711-5.263-10.829-4.226" fill="#6D6D6D" fill-rule="nonzero"/><path d="M63.3154 20.6245c.553 5.261 5.266 9.078 10.526 8.524 5.261-.552 9.078-5.266 8.525-10.526-.553-5.262-5.266-9.078-10.527-8.525-5.26.553-9.078 5.266-8.524 10.527" fill="#222" fill-rule="nonzero"/><path d="M62.8408 19.0073s7.229.163 13.356 4.248c6.129 4.085 9.718 13.5 10.767 16.457 1.049 2.957 2.191 8.566 1.907 11.126-.284 2.56-2.434 7.695-8.229 10.311-5.796 2.615-12.924 4.468-22.84 4.877-9.916.409-17.281.315-24.027-5.964-6.746-6.28-5.521-14.805-4.752-18.895.769-4.09 2.627-10.095 10.097-16.228 7.471-6.134 18.059-6.286 23.721-5.932" fill="#FFF" fill-rule="nonzero"/><path d="M60.9111 43.917l-.043 1c1.793.078 3.592.021 5.379-.167 3.813-.4 7.568-1.4 11.068-2.96l-.407-.913c-4.998 2.228-10.53 3.279-15.997 3.04M85.9473 37.0557c-.643-.062-1.132-.348-1.48-.859-.571-.838-1.224-2.639-1.981-4.725-.33-.911-.682-1.879-1.059-2.861-.684-.971-1.428-1.906-2.233-2.766.899 1.964 1.671 4.089 2.353 5.968l2.093 4.947c.448.656 1.264 1.344 2.71 1.304-.123-.315-.257-.652-.403-1.008M52.7236 43.3242c-.394-.934-.679-2.828-1.009-5.023-.562-3.739-1.262-8.392-2.91-11.477-2.753-5.156-6.367-5.639-8.124-4.706-2.945 1.563-5.209 6.581-6.345 10.755l.964.263c1.65-6.059 4.104-9.208 5.85-10.135 1.403-.744 4.365-.216 6.773 4.293 1.567 2.935 2.252 7.493 2.803 11.157.34 2.26.634 4.212 1.077 5.262.379.899 1.295 1.956 3.501 1.883l-.033-.999c-1.334.043-2.167-.373-2.547-1.273M81.5469 31.813c.779 2.149 1.452 4.005 2.094 4.946" fill="#BBB" fill-rule="nonzero"/><path d="M86.9639 39.7124c-.487-1.375-1.526-4.149-3.113-7.132-.584-.198-1.198-.363-1.842-.488-.404-.098-.819-.163-1.244-.192-.002-.001-.005-.001-.007-.001h-.001c-.433-.03-.874-.026-1.32.021-4.145.436-7.151 4.148-6.715 8.293l.683 6.504c.436 4.144 4.149 7.151 8.292 6.715l5.863-.616c.304-.032.602-.083.893-.15.225-.686.361-1.311.418-1.829.284-2.56-.858-8.168-1.907-11.125" fill="#222" fill-rule="nonzero"/><path d="M58.3457 44.3057l2.543.111" stroke="#BBB"/><path d="M66.2881 49.3135c-.767 0-1.389-.453-1.42-.477-.222-.164-.268-.477-.104-.699.165-.222.477-.268.699-.104.004.002.571.405 1.077.241.44-.143.705-.698.85-1.139.082-.252.271-.417.505-.442.235-.024.455.098.587.327.234.403.61.893 1.073.939.518.053.993-.456.998-.461.182-.207.499-.227.706-.044.207.183.226.499.043.706-.033.037-.805.897-1.847.794-.521-.052-.992-.325-1.408-.814-.305.565-.709.93-1.208 1.089-.188.06-.373.084-.551.084M52.3057 34.7725c-.447.047-.879.134-1.296.253h-.001c-.002.001-.004.002-.007.002-.408.118-.801.267-1.176.448-8.062 3.42-9.333 12.567-9.333 12.567-.125.69-.158 1.41-.081 2.143.436 4.144 4.148 7.15 8.293 6.715l5.862-.616c4.144-.436 7.151-4.149 6.716-8.293l-.685-6.504c-.435-4.144-4.147-7.151-8.292-6.715" fill="#222" fill-rule="nonzero"/><path d="M55.1675 51.5439c-3.116.333-5.956-2.201-6.311-5.632-.355-3.431 1.904-6.511 5.02-6.844 3.116-.333 5.956 2.202 6.311 5.633.355 3.43-1.904 6.51-5.02 6.843" fill="#FFF" fill-rule="nonzero"/><path d="M58.6768 44.8623c.261 2.526-1.387 4.773-3.681 5.019-2.295.245-4.367-1.604-4.629-4.131-.261-2.527 1.387-4.773 3.682-5.018 2.295-.246 4.366 1.604 4.628 4.13" fill="#222" fill-rule="nonzero"/><path d="M54.3291 43.0127c.11 1.043-.647 1.978-1.69 2.087-1.043.11-1.978-.647-2.087-1.69-.11-1.043.647-1.978 1.69-2.087 1.043-.11 1.978.647 2.087 1.69" fill="#FFF" fill-rule="nonzero"/><path d="M71.2051 43.4829c-.131-1.247-1.259-2.16-2.505-2.028l-2.723.286c-1.247.131-2.16 1.258-2.029 2.505l.01.087c.065.623.38 1.163.834 1.53l.749.615.736.596c.458.371 1.058.568 1.69.501.632-.067 1.177-.383 1.548-.841l.597-.737.605-.756c.367-.454.562-1.048.497-1.671l-.009-.087zM58.2236 27.5898c-.019-.004-.037.003-.056 0l.002-.01-3.288-.482c-.6-.122-1.186.265-1.309.865-.122.601.265 1.187.865 1.309l3.209.854.002-.011c.02.005.035.019.055.023.704.144 1.391-.31 1.534-1.014.144-.704-.31-1.39-1.014-1.534M77.9688 25.3989c-.244-.562-.898-.819-1.46-.574l-3.116 1.155.004.009c-.018.007-.037.004-.055.012-.658.287-.96 1.053-.673 1.711.287.659 1.053.96 1.712.673.019-.008.03-.025.048-.033l.005.009 2.961-1.502c.561-.245.818-.898.574-1.46" fill="#222" fill-rule="nonzero"/><path d="M80.082 48.8813c-3.115.333-5.955-2.202-6.311-5.633-.355-3.43 1.905-6.51 5.02-6.843 3.116-.333 5.956 2.202 6.312 5.632.354 3.431-1.905 6.511-5.021 6.844" fill="#FFF" fill-rule="nonzero"/><path d="M75.2998 43.0854c.261 2.526 2.333 4.375 4.628 4.13 2.294-.245 3.942-2.492 3.681-5.018-.261-2.527-2.333-4.376-4.628-4.131-2.294.246-3.943 2.493-3.681 5.019M41.1968 26.374c.945-1.045 1.984-1.962 3.082-2.769-.051-.39-.123-.781-.224-1.171-1.323-5.122-6.548-8.202-11.67-6.878-5.122 1.323-8.201 6.548-6.877 11.67 1.221 4.727 5.765 7.711 10.484 7.103 1.017-2.432 2.633-5.11 5.205-7.955" fill="#222" fill-rule="nonzero"/><path d="M75.4229 40.7959c.109 1.043 1.044 1.8 2.088 1.69 1.043-.109 1.8-1.044 1.689-2.087-.109-1.043-1.044-1.8-2.087-1.69-1.043.109-1.799 1.044-1.69 2.087" fill="#FFF" fill-rule="nonzero"/><path d="M72.8525 8.0439c-.405 0-.816.022-1.222.064-4.973.523-8.939 4.112-10.048 8.833-.73-.028-1.453-.043-2.162-.043-5.453 0-10.307.814-14.464 2.423-1.988-3.703-5.849-6.071-10.173-6.071-.973 0-1.949.124-2.899.37-2.994.773-5.508 2.667-7.078 5.331-1.571 2.664-2.01 5.781-1.236 8.775.772 2.986 2.693 5.506 5.301 7.052-1.056 2.419-1.535 4.533-1.814 6.02-.623 3.314-2.519 13.398 5.355 20.728 3.209 2.988 6.672 4.84 10.937 5.8-3.558 4.888-7.226 11.138-8.02 16.945-.349 2.543-.027 4.749.956 6.576l-.149.355c-.034.081-.062.165-.085.25-.315 1.166-.025 2.398.778 3.295.672.754 1.639 1.187 2.649 1.187.044 0 .088-.001.131-.002.27.406.626.758 1.053 1.029.518.33 1.109.519 1.719.55l-1.044 4.167c-.571 2.283.813 4.636 3.086 5.245l10.106 2.708c.372.1.753.15 1.132.15 1.299 0 2.521-.582 3.351-1.595.825-1.008 1.151-2.32.894-3.6-.013-.064-.007-.13.016-.189l1.1-2.829 3.729 6.22c.78 1.3 2.206 2.109 3.723 2.109.759 0 1.509-.202 2.168-.582l9.061-5.232c1.308-.756 2.119-2.108 2.167-3.619.03-.959-.249-1.873-.779-2.627.6-.052 1.175-.255 1.679-.595.42-.283.766-.644 1.024-1.058h.035c1.047 0 2.037-.459 2.713-1.259.778-.92 1.035-2.16.687-3.318-.025-.084-.056-.166-.092-.246l-.158-.35c.933-1.854 1.194-4.068.777-6.6-1.181-7.17-6.763-14.845-10.84-19.646 1.556-.529 3.061-1.122 4.547-1.793 6.708-3.027 9.062-8.913 9.395-11.913.346-3.113-.969-9.08-2.01-12.015-1.056-2.977-3.244-8.332-6.599-12.674 1.647-2.29 2.406-5.105 2.106-7.957-.621-5.911-5.566-10.369-11.503-10.369m0 2c4.84 0 8.997 3.657 9.514 8.578.312 2.97-.769 5.764-2.716 7.735 4.039 4.59 6.48 11.006 7.313 13.355 1.049 2.957 2.192 8.566 1.908 11.126-.285 2.56-2.435 7.696-8.23 10.311-2.229 1.006-4.658 1.897-7.363 2.639.216.171.429.348.617.556 3.231 3.599 10.589 12.513 11.888 20.392.453 2.753-.065 4.727-1.052 6.153l.583 1.294c.149.498.04 1.049-.299 1.451-.296.349-.728.55-1.186.55-.367 0-.722-.13-1.002-.367-.127-.107-.234-.231-.32-.372l-.182-.406c-.053.03-.108.056-.161.085l.17 1.142c.01.521-.245 1.023-.682 1.318-.258.174-.558.266-.867.266-.518 0-.999-.256-1.288-.685-.093-.138-.163-.287-.208-.447l-.078-.525s0 .001-.001.001c-.092.021-.184.022-.277.035-.125.259-.314.488-.566.645-.247.154-.531.235-.82.235-.22 0-.427-.055-.621-.14l1.058 2.404c.18.409.472.758.845 1.006 1.444.961 1.377 3.104-.126 3.973l-9.061 5.23c-.368.213-.77.315-1.168.315-.795 0-1.57-.407-2.008-1.137l-4.403-7.347c-.752-.015-1.524-.056-2.306-.11l-1.698 4.368c-.163.417-.202.87-.114 1.309.3 1.49-.864 2.801-2.284 2.801-.201 0-.407-.026-.614-.082l-10.106-2.708c-1.234-.33-1.974-1.589-1.664-2.827l1.907-7.612c-.062-.027-.127-.044-.185-.077-.256-.151-.451-.374-.584-.631-.092-.01-.185-.009-.278-.027 0 0-.001 0-.001-.001l-.065.532c-.04.159-.105.309-.193.448-.287.45-.777.72-1.312.72-.294 0-.582-.084-.832-.243-.444-.283-.713-.777-.717-1.298l.139-1.147c-.054-.027-.11-.052-.163-.081l-.174.415c-.082.142-.184.268-.307.377-.285.254-.652.395-1.034.395-.441 0-.864-.19-1.158-.519-.35-.392-.474-.939-.339-1.441l.548-1.311c-1.026-1.397-1.598-3.356-1.219-6.121.917-6.699 6.151-14.247 9.637-18.644-4.885-.547-9.142-2.083-13.173-5.836-6.746-6.28-5.521-14.805-4.752-18.894.384-2.041 1.039-4.558 2.526-7.33-2.881-1.035-5.218-3.424-6.041-6.612-1.324-5.122 1.756-10.347 6.877-11.67.802-.207 1.607-.306 2.399-.306 4.097 0 7.844 2.654 9.119 6.698 5.236-2.473 11.057-3.05 15.518-3.05 1.264 0 2.419.047 3.42.109 0 0 .169.006.449.024.281-4.587 3.828-8.437 8.55-8.934.34-.035.678-.053 1.013-.053" fill="#000" fill-rule="nonzero"/></g></svg>