<svg width="120" height="120" xmlns="http://www.w3.org/2000/svg"><g fill="none" fill-rule="evenodd"><path d="M72.8262 6.4438c-.406 0-.817.022-1.223.064-4.972.523-8.938 4.112-10.048 8.833-.729-.028-1.452-.043-2.161-.043-5.454 0-10.308.814-14.464 2.423-1.989-3.703-5.849-6.071-10.173-6.071-.974 0-1.949.124-2.899.37-2.995.773-5.509 2.667-7.079 5.331-1.57 2.664-2.009 5.781-1.235 8.775.771 2.986 2.693 5.506 5.301 7.052-1.056 2.419-1.535 4.533-1.815 6.02-.623 3.314-2.519 13.398 5.355 20.728 2.851 2.653 5.978 4.437 9.645 5.474-3.925 3.897-8.046 8.896-9.725 13.96-.809 2.435-.896 4.663-.265 6.639l-.212.322c-.048.075-.092.153-.13.232-.522 1.088-.462 2.351.161 3.38.558.921 1.475 1.522 2.517 1.675.192.448.477.859.846 1.204.66.615 1.521.954 2.423.954.664 0 1.312-.188 1.869-.532.451.201.943.307 1.444.307.865 0 1.693-.314 2.336-.875.974 1.69 2.382 3.069 4.213 4.126l.757 4.68c.265 1.637 1.411 2.925 2.913 3.42l.255 1.302c.13 2.254 2.013 4.071 4.294 4.09l10.462.091c1.542 0 2.916-.761 3.715-2.035.798-1.274.883-2.843.228-4.196-.029-.059-.04-.123-.033-.188l.374-3.148c.979-1.005 1.73-2.194 2.21-3.498 1.848-1.291 3.21-3.094 4.077-5.389.318.1.653.152.995.152.06 0 .122-.001.182-.004.042.044.086.087.13.13l.014.053c.02.081.046.161.077.239.138.352.33.678.572.969.677.814 1.673 1.28 2.733 1.28.474 0 .943-.095 1.376-.278.57.369 1.241.571 1.931.571.876 0 1.717-.321 2.37-.905.376-.337.669-.742.87-1.186 1.045-.132 1.977-.718 2.55-1.623.649-1.021.733-2.29.225-3.391-.034-.072-.071-.143-.113-.211l-.209-.341c.67-1.962.627-4.188-.13-6.638-2.098-6.784-8.422-13.472-13.087-17.695 1.432-.498 2.82-1.052 4.192-1.671 6.708-3.027 9.062-8.913 9.395-11.913.346-3.113-.969-9.08-2.01-12.015-1.056-2.977-3.244-8.332-6.599-12.674 1.647-2.29 2.406-5.105 2.106-7.957-.621-5.911-5.566-10.369-11.503-10.369" fill="#000" fill-rule="nonzero"/><path d="M66.2061 108.375l-10.462-.091c-1.277-.011-2.309-1.044-2.319-2.32l-2.291-11.688c-.034-4.426 5.766-8.023 10.193-7.984 4.718.041 8.355 4.169 7.8 8.854l-1.015 8.575c-.052.444.024.893.219 1.296.756 1.56-.391 3.373-2.125 3.358" fill="#222" fill-rule="nonzero"/><path d="M50.2388 101.1523l-1.671-10.329c-.204-1.26.641-2.451 1.898-2.676l11.134-4.224c4.358-.779 8.88 4.333 9.587 8.704.753 4.657-2.705 8.937-7.416 9.178l-8.624.444c-.446.022-.876.173-1.24.432-1.411 1.009-3.391.183-3.668-1.529" fill="#222" fill-rule="nonzero"/><path d="M79.1055 88.7187l-.001-1.104h-.005c0-.195-.037-.393-.128-.582-.231-.485-.716-.769-1.22-.769-.197 0-.395.043-.583.133-.486.232-.765.717-.765 1.221h-.005l.001 1.105.586-.001c.225.156.491.248.767.248.196 0 .394-.043.582-.133.07-.033.132-.074.193-.117l.578-.001z" fill="#C1C1C1" fill-rule="nonzero"/><path d="M77.751 86.4639c.441 0 .851.257 1.041.655.273.574.03 1.264-.543 1.537-.157.076-.324.114-.496.114-.442 0-.851-.258-1.041-.657-.133-.277-.149-.589-.047-.88.103-.29.312-.524.59-.657.156-.074.323-.112.496-.112" fill="#FFF" fill-rule="nonzero"/><path d="M77.752 87.3682c-.195 0-.395.042-.582.132-.675.322-.96 1.13-.638 1.804.233.486.717.769 1.222.769.195 0 .394-.042.582-.132.675-.322.96-1.13.638-1.803-.233-.487-.717-.77-1.222-.77" fill="#C1C1C1" fill-rule="nonzero"/><path d="M77.752 87.5674c.442 0 .851.258 1.041.656.274.573.03 1.263-.543 1.537-.157.076-.324.114-.496.114-.442 0-.851-.258-1.041-.657-.133-.277-.149-.59-.047-.88.103-.291.312-.524.59-.657.157-.075.324-.113.496-.113" fill="#FFF" fill-rule="nonzero"/><path d="M81.1885 88.5654c-.361 0-.714.127-.992.358-.405.337-.609.862-.548 1.379l.37 1.458c.06.153.144.293.248.42.296.356.732.56 1.195.56.362 0 .714-.127.993-.359.404-.337.608-.861.546-1.378v-.003l-.369-1.456c-.06-.152-.143-.292-.249-.419-.296-.356-.731-.56-1.194-.56" fill="#C1C1C1" fill-rule="nonzero"/><path d="M81.1885 88.7646c.388 0 .773.167 1.041.488.133.16.222.343.27.533l.001-.001.272 1.07-.002.001c.124.489-.03 1.028-.444 1.372-.253.211-.56.313-.865.313-.388 0-.773-.167-1.041-.488-.133-.16-.221-.343-.269-.532l-.002.001-.272-1.07h.001c-.124-.491.032-1.03.446-1.374.253-.21.559-.313.864-.313" fill="#FFF" fill-rule="nonzero"/><path d="M84.458 88.8682c-.382 0-.75.141-1.035.396-.392.351-.576.882-.497 1.397l.423 1.443c.065.151.153.289.263.412.294.329.716.517 1.158.517.382 0 .75-.141 1.035-.395.392-.352.577-.883.497-1.397l-.422-1.444c-.066-.151-.154-.288-.264-.411-.295-.33-.717-.518-1.158-.518" fill="#C1C1C1" fill-rule="nonzero"/><path d="M84.458 89.0684c.372 0 .741.152 1.009.451.138.155.233.334.289.522l.001-.001.31 1.059-.001.001c.142.485.007 1.03-.394 1.388-.259.231-.581.345-.902.345-.372 0-.742-.152-1.008-.451-.14-.155-.235-.334-.289-.521h-.002l-.311-1.06h.002c-.141-.484-.007-1.029.395-1.388.257-.231.58-.345.901-.345" fill="#FFF" fill-rule="nonzero"/><path d="M86.9736 86.9287c-.535 0-1.026.27-1.312.721-.283.445-.315 1.007-.098 1.479l-.012.008.106.171.708 1.1c.103.125.224.232.362.32.25.158.537.241.831.241.535 0 1.025-.269 1.312-.721.283-.446.315-1.008.097-1.483l-.785-1.277-.012.007c-.104-.128-.227-.236-.367-.325-.249-.158-.536-.241-.83-.241" fill="#C1C1C1" fill-rule="nonzero"/><path d="M86.9736 87.1289c.248 0 .499.067.724.21.175.111.315.258.42.424l.001-.001.586.934-.001.001c.269.428.287.989-.001 1.444-.258.406-.697.629-1.144.629-.248 0-.499-.069-.724-.211-.175-.112-.315-.258-.42-.424l-.001.001-.586-.935v-.001c-.268-.427-.286-.988.002-1.443.258-.406.697-.628 1.144-.628" fill="#FFF" fill-rule="nonzero"/><path d="M70.0195 61.626c1.384-.192 2.782.215 3.849 1.118 3.691 3.126 12.194 10.956 14.552 18.585 1.964 6.353-2.1 9.109-5.223 10.264-1.701.63-3.604-.134-4.422-1.753l-10.559-20.895-.978-1.788c-1.263-2.309.175-5.168 2.781-5.531" fill="#222" fill-rule="nonzero"/><path d="M76.5352 85.4072c2.218-4.317 7.016-6.438 11.498-5.189-.106-.278-.22-.556-.341-.833-2.049-.453-4.195-.275-6.199.543-2.267.921-4.137 2.567-5.356 4.69l.398.789zM82.3164 71.1318c-.216-.257-.433-.51-.651-.761-1.823-.025-3.632.409-5.275 1.295-1.948 1.05-3.496 2.642-4.486 4.576l.417.826c1.748-3.94 5.763-6.288 9.995-5.936" fill="#6D6D6D" fill-rule="nonzero"/><path d="M43.7183 84.1699c-.9 10.288 6.126 12.682 14.984 13.457 8.858.774 16.193-.362 17.094-10.651.9-10.288-3.787-30.145-13.451-30.99-9.663-.846-17.727 17.895-18.627 28.184" fill="#222" fill-rule="nonzero"/><path d="M70.877 69.1191l-5.641-.507c-1.538.033-2.97.529-4.199 1.368l-.002-.001s-1.226.673-1.626.818c-1.365.499-3.747 1.131-6.533.825-2.135-.234-3.956-.699-5.372-1.214-2.084 4.786-3.446 9.876-3.786 13.762-.197 2.263-.011 4.144.493 5.711.539-.186 1.032-.415 1.444-.701.856-.835 2.607-2.058 5.35-1.771 2.221.232 3.783 1.425 4.746 2.462 2.72 2.512 7.377 2.92 9.394 2.975.544.014 1.084.057 1.623.128 1.564.208 4.751.457 7.535-.429.777-1.46 1.294-3.289 1.493-5.57.393-4.483-.277-10.785-1.957-16.538-.868-.635-1.864-1.094-2.962-1.318" fill="#FFF" fill-rule="nonzero"/><path d="M75.9043 84.4668c-2.743.903-5.97.628-7.433.429-.551-.075-1.115-.123-1.674-.14-1.85-.056-6.429-.444-9.044-2.857-.981-1.057-2.648-2.363-5.041-2.62-2.946-.322-4.833 1.014-5.715 1.861-.78.528-1.867.848-3.031 1.035-.056.351-.104.694-.145 1.03 1.424-.204 2.795-.586 3.778-1.264l.064-.054c.741-.722 2.367-1.891 4.942-1.614 2.095.226 3.564 1.385 4.427 2.319l.027.026c2.861 2.656 7.742 3.078 9.707 3.138.526.016 1.053.06 1.57.13 1.483.202 4.679.474 7.547-.369.012-.342.019-.693.021-1.05" fill="#BBB" fill-rule="nonzero"/><path d="M70.2051 66.5869l-.915-.594c-.158-.103-.346-.168-.549-.178-.202-.011-.395.034-.564.12l-.972.495-.972.495c-.174.089-.322.223-.428.387-.104.158-.168.345-.179.548 0 0-.028.544-.057 1.089-.028.544-.057 1.089-.057 1.089-.01.203.034.396.12.565.089.173.222.322.386.428l.915.595.915.594c.159.102.345.167.548.178.204.01.396-.034.565-.121v.001l.972-.496.971-.495c.174-.089.322-.221.429-.386.103-.159.168-.345.179-.548 0 0 .028-.545.056-1.089.03-.545.058-1.089.058-1.089.011-.203-.034-.397-.12-.565-.089-.174-.223-.322-.387-.429h.001l-.915-.594z" fill="#0BF" fill-rule="nonzero"/><path d="M69.9521 67.5576c-.091-.006-.176.025-.238.082l-1.001.901c-.067.06-.168.054-.229-.012l-.9-1c-.057-.063-.138-.104-.229-.108-.178-.006-.326.137-.336.315l-.134 2.572c-.009.175.119.331.294.347.183.016.342-.123.352-.306l.084-1.611c.004-.072.093-.104.142-.05l.571.636c.056.061.135.101.224.106.089.005.171-.027.234-.083l.635-.571c.053-.049.138-.008.135.064l-.084 1.603c-.009.176.119.332.293.347.184.017.343-.123.353-.305l.135-2.579c.01-.179-.123-.336-.301-.348" fill="#FFF" fill-rule="nonzero"/><path fill="#C1C1C1" fill-rule="nonzero" d="M43.3882 86.4648l-.024 1.104 2.706.058.024-1.103z"/><path d="M44.7422 85.1406c-.495 0-.972.272-1.209.745-.336.667-.068 1.481.6 1.817.194.098.402.144.607.144.495 0 .971-.272 1.209-.744.336-.668.067-1.481-.6-1.816-.195-.099-.402-.146-.607-.146" fill="#C1C1C1" fill-rule="nonzero"/><path d="M44.7422 85.3242c.183 0 .359.042.524.125.577.29.809.995.519 1.57-.2.398-.6.644-1.045.644-.184 0-.36-.042-.525-.125-.576-.29-.808-.994-.518-1.57.199-.397.6-.644 1.045-.644" fill="#FFF" fill-rule="nonzero"/><path d="M44.7183 86.2451c-.495 0-.972.272-1.209.744-.336.668-.068 1.481.6 1.817.194.098.402.145.607.145.495 0 .971-.273 1.209-.745.336-.667.067-1.481-.6-1.816-.195-.099-.402-.145-.607-.145" fill="#C1C1C1" fill-rule="nonzero"/><path d="M44.7183 86.4277c.183 0 .36.043.524.126.577.29.809.994.519 1.57-.2.397-.6.644-1.045.644-.184 0-.36-.042-.525-.125-.576-.29-.808-.995-.518-1.57.199-.398.6-.645 1.045-.645" fill="#FFF" fill-rule="nonzero"/><path d="M39.4233 89.7705c-.072.517.121 1.046.519 1.391.282.245.643.38 1.016.38.451 0 .879-.196 1.174-.537.107-.124.193-.261.256-.413l.401-1.455c.071-.514-.122-1.042-.519-1.386-.283-.245-.644-.379-1.017-.379-.451 0-.878.195-1.174.536-.109.125-.195.265-.258.418l-.398 1.445z" fill="#C1C1C1" fill-rule="nonzero"/><path d="M41.2534 87.5713c.314 0 .629.108.886.331.406.353.55.895.416 1.382h.002l-.294 1.064-.002-.001c-.051.189-.144.37-.28.527-.268.308-.644.467-1.023.467-.314 0-.629-.109-.885-.331-.407-.353-.551-.895-.417-1.381l-.002-.001.294-1.064h.002c.052-.188.144-.369.281-.526.267-.309.644-.467 1.022-.467" fill="#FFF" fill-rule="nonzero"/><path d="M37.978 87.6074c-.429 0-.843.18-1.136.494-.112.12-.203.256-.271.404l-.452 1.434c-.092.514.082 1.05.467 1.409.289.27.665.417 1.059.417.429 0 .843-.179 1.136-.493.113-.122.205-.259.274-.409l.451-1.436c.088-.511-.085-1.045-.469-1.403-.288-.269-.664-.417-1.059-.417" fill="#C1C1C1" fill-rule="nonzero"/><path d="M37.978 87.8076c.331 0 .662.12.922.363.394.367.518.915.367 1.397h.001l-.332 1.053h-.002c-.059.186-.157.363-.299.515-.267.286-.628.43-.99.43-.331 0-.662-.12-.922-.363-.394-.368-.518-.915-.367-1.396l-.001-.001.332-1.053.002.001c.059-.186.157-.363.299-.516.267-.285.628-.43.99-.43" fill="#FFF" fill-rule="nonzero"/><path d="M35.5029 85.6162c-.283 0-.56.078-.803.225-.141.086-.265.191-.372.316l-.827 1.262c-.225.468-.203 1.028.069 1.477.284.469.781.748 1.329.748.283 0 .561-.077.804-.224.14-.085.265-.192.371-.316l.825-1.257c.228-.468.207-1.032-.066-1.483-.285-.468-.781-.748-1.33-.748" fill="#C1C1C1" fill-rule="nonzero"/><path d="M35.5029 85.8164c.458 0 .904.232 1.158.652.279.46.25 1.021-.027 1.443l.001.001-.606.923-.002-.001c-.107.163-.25.306-.428.415-.219.132-.461.195-.7.195-.457 0-.903-.232-1.158-.651-.279-.461-.249-1.021.028-1.444l-.002-.001.607-.923.001.001c.107-.163.25-.306.428-.414.22-.133.461-.196.7-.196" fill="#FFF" fill-rule="nonzero"/><path d="M53.0049 60.668c-1.38-.222-2.787.158-3.871 1.038-3.755 3.05-12.416 10.703-14.931 18.283-2.094 6.311 1.913 9.15 5.012 10.368 1.688.665 3.606-.059 4.457-1.662l10.985-20.673 1.015-1.768c1.31-2.282-.069-5.17-2.667-5.586" fill="#222" fill-rule="nonzero"/><path d="M46.0024 84.3096c-2.129-4.361-6.882-6.581-11.39-5.424.113-.275.232-.551.358-.826 2.058-.409 4.201-.187 6.188.67 2.247.969 4.083 2.652 5.259 4.8l-.415.78zM40.5156 69.9189c.221-.252.443-.501.667-.747 1.822.012 3.622.483 5.247 1.402 1.925 1.09 3.44 2.713 4.391 4.668l-.433.816c-1.668-3.974-5.634-6.404-9.872-6.139" fill="#6D6D6D" fill-rule="nonzero"/><path d="M63.2881 19.0244c.553 5.261 5.267 9.078 10.527 8.524 5.261-.552 9.077-5.266 8.525-10.526-.553-5.261-5.266-9.078-10.528-8.525-5.26.553-9.077 5.266-8.524 10.527" fill="#222" fill-rule="nonzero"/><path d="M62.8145 17.4072s7.228.163 13.356 4.249c6.128 4.084 9.718 13.499 10.767 16.456 1.048 2.957 2.191 8.566 1.907 11.126-.284 2.56-2.434 7.695-8.23 10.311-5.795 2.615-12.923 4.468-22.84 4.878-9.916.409-17.28.315-24.026-5.965-6.747-6.28-5.521-14.805-4.752-18.895.768-4.09 2.627-10.094 10.097-16.228 7.47-6.133 18.058-6.286 23.721-5.932" fill="#FFF" fill-rule="nonzero"/><path d="M86.3242 36.4639c-.123-.315-.257-.651-.404-1.008-.642-.063-1.131-.348-1.481-.86-.57-.837-1.223-2.638-1.979-4.724-.331-.911-.682-1.88-1.059-2.861-.684-.971-1.429-1.906-2.233-2.766.898 1.964 1.671 4.089 2.351 5.968l2.094 4.946c.24.353-6.732 4.118-6.732 4.118-4.998 2.228-10.53 3.28-15.997 3.041l-5.641.679c-1.333.044-2.166-.372-2.546-1.273-.394-.933-.679-2.828-1.009-5.023-.563-3.738-1.262-8.391-2.91-11.477-2.753-5.156-6.368-5.639-8.124-4.705-2.945 1.562-5.209 6.58-6.346 10.755l.965.262c1.65-6.058 4.104-9.208 5.85-10.135 1.403-.744 4.364-.216 6.772 4.294 1.568 2.934 2.253 7.492 2.804 11.156.34 2.26.633 4.213 1.077 5.262.379.899 1.295 1.956 3.5 1.884l5.565-.68c1.793.078 3.592.022 5.379-.166 3.814-.401 7.569-1.401 11.068-2.961 0 0 8.387-3.708 9.036-3.726" fill="#BBB" fill-rule="nonzero"/><path d="M86.9375 38.1123c-.488-1.375-1.526-4.148-3.113-7.132-.584-.198-1.198-.363-1.842-.488-.404-.098-.82-.163-1.244-.192-.002-.001-.005-.001-.008-.001-.433-.03-.874-.025-1.32.021-4.145.436-7.152 4.148-6.716 8.293l.683 6.504c.436 4.144 4.149 7.151 8.293 6.715l5.863-.616c.304-.032.601-.083.893-.15.225-.686.361-1.31.418-1.829.284-2.56-.859-8.168-1.907-11.125" fill="#222" fill-rule="nonzero"/><path d="M58.3188 42.7056l2.544.111" stroke="#BBB"/><path d="M52.2788 33.1724c-.446.047-.879.134-1.296.253l-.008.003c-.408.117-.801.266-1.176.447-8.062 3.42-9.333 12.567-9.333 12.567-.125.69-.158 1.41-.081 2.143.436 4.144 4.148 7.15 8.293 6.715l5.862-.616c4.144-.436 7.151-4.149 6.715-8.293l-.683-6.504c-.436-4.144-4.148-7.151-8.293-6.715" fill="#222" fill-rule="nonzero"/><path d="M55.1411 49.9438c-3.116.333-5.956-2.201-6.311-5.632-.355-3.431 1.904-6.511 5.019-6.844 3.117-.333 5.957 2.202 6.312 5.633.355 3.43-1.904 6.51-5.02 6.843" fill="#FFF" fill-rule="nonzero"/><path d="M58.6499 43.2622c.262 2.526-1.387 4.773-3.681 5.019-2.295.245-4.367-1.604-4.628-4.131-.262-2.526 1.387-4.773 3.681-5.018 2.295-.246 4.367 1.604 4.628 4.13" fill="#222" fill-rule="nonzero"/><path d="M54.3022 41.4126c.11 1.043-.647 1.978-1.69 2.087-1.043.11-1.977-.647-2.087-1.69-.11-1.043.647-1.978 1.69-2.087 1.043-.11 1.978.647 2.087 1.69" fill="#FFF" fill-rule="nonzero"/><path d="M71.2314 45.8545c-.206-.183-.522-.163-.705.044-.005.005-.481.516-.999.46-.336-.033-.624-.302-.848-.6.316-.15.594-.359.809-.624l.597-.738.605-.756c.367-.454.562-1.047.497-1.671l-.009-.087c-.132-1.246-1.259-2.159-2.505-2.028l-2.723.286c-1.246.131-2.159 1.258-2.029 2.505l.009.087c.066.623.38 1.163.834 1.531h.001l.748.614.738.597c.274.222.603.372.956.449-.156.333-.378.649-.695.751-.506.164-1.073-.239-1.076-.241-.222-.164-.535-.118-.699.104-.165.222-.118.535.103.699.033.024.655.477 1.421.477.178 0 .364-.025.551-.085.498-.158.903-.524 1.208-1.088.416.489.888.762 1.408.814 1.04.105 1.815-.757 1.847-.794.183-.207.163-.523-.044-.706M58.1968 25.9897c-.019-.004-.037.003-.056 0l.002-.01-3.288-.482c-.6-.122-1.186.265-1.309.865-.122.601.265 1.187.865 1.309l3.209.854.003-.011c.019.005.034.019.054.023.704.144 1.391-.31 1.534-1.014.144-.703-.31-1.39-1.014-1.534M77.9424 23.7988c-.245-.562-.898-.819-1.46-.574l-3.116 1.155.004.009c-.019.007-.037.004-.055.012-.658.287-.96 1.053-.673 1.711.286.659 1.053.96 1.711.673.02-.007.03-.025.049-.033l.004.009 2.962-1.502c.561-.245.818-.898.574-1.46" fill="#222" fill-rule="nonzero"/><path d="M80.0557 47.2812c-3.116.333-5.956-2.202-6.311-5.632-.355-3.431 1.904-6.511 5.02-6.844 3.116-.333 5.956 2.202 6.311 5.632.355 3.431-1.904 6.511-5.02 6.844" fill="#FFF" fill-rule="nonzero"/><path d="M75.2725 41.4854c.262 2.526 2.334 4.376 4.628 4.13 2.295-.245 3.943-2.492 3.682-5.018-.262-2.527-2.333-4.376-4.628-4.131-2.295.246-3.943 2.493-3.682 5.019M41.1699 24.7739c.945-1.045 1.984-1.962 3.082-2.768-.051-.39-.123-.781-.224-1.172-1.323-5.122-6.548-8.201-11.67-6.878-5.122 1.323-8.201 6.548-6.877 11.67 1.221 4.727 5.765 7.711 10.484 7.103 1.017-2.431 2.633-5.11 5.205-7.955" fill="#222" fill-rule="nonzero"/><path d="M75.3965 39.1958c.109 1.043 1.044 1.8 2.087 1.69 1.043-.109 1.8-1.044 1.69-2.087-.109-1.043-1.044-1.8-2.087-1.69-1.043.109-1.799 1.044-1.69 2.087" fill="#FFF" fill-rule="nonzero"/><path d="M72.8262 6.4438c-.406 0-.817.022-1.223.064-4.972.523-8.938 4.112-10.048 8.833-.729-.028-1.452-.043-2.161-.043-5.454 0-10.308.814-14.464 2.423-1.989-3.703-5.849-6.071-10.173-6.071-.974 0-1.949.124-2.899.37-2.995.773-5.509 2.667-7.079 5.331-1.57 2.664-2.009 5.781-1.235 8.775.771 2.986 2.693 5.506 5.301 7.052-1.056 2.419-1.535 4.533-1.815 6.02-.623 3.314-2.519 13.398 5.355 20.728 2.851 2.653 5.978 4.437 9.645 5.474-3.925 3.897-8.046 8.896-9.725 13.96-.809 2.435-.896 4.663-.265 6.639l-.212.322c-.048.075-.092.153-.13.232-.522 1.088-.462 2.351.161 3.38.558.921 1.475 1.522 2.517 1.675.192.448.477.859.846 1.204.66.615 1.521.954 2.423.954.664 0 1.312-.188 1.869-.532.451.201.943.307 1.444.307.865 0 1.693-.314 2.336-.875.974 1.69 2.382 3.069 4.213 4.126l.757 4.68c.265 1.637 1.411 2.925 2.913 3.42l.255 1.302c.13 2.254 2.013 4.071 4.294 4.09l10.462.091c1.542 0 2.916-.761 3.715-2.035.798-1.274.883-2.843.228-4.196-.029-.059-.04-.123-.033-.188l.374-3.148c.979-1.005 1.73-2.194 2.21-3.498 1.848-1.291 3.21-3.094 4.077-5.389.318.1.653.152.995.152.06 0 .122-.001.182-.004.042.044.086.087.13.13l.014.053c.02.081.046.161.077.239.138.352.33.678.572.969.677.814 1.673 1.28 2.733 1.28.474 0 .943-.095 1.376-.278.57.369 1.241.571 1.931.571.876 0 1.717-.321 2.37-.905.376-.337.669-.742.87-1.186 1.045-.132 1.977-.718 2.55-1.623.649-1.021.733-2.29.225-3.391-.034-.072-.071-.143-.113-.211l-.209-.341c.67-1.962.627-4.188-.13-6.638-2.098-6.784-8.422-13.472-13.087-17.695 1.432-.498 2.82-1.052 4.192-1.671 6.708-3.027 9.062-8.913 9.395-11.913.346-3.113-.969-9.08-2.01-12.015-1.056-2.977-3.244-8.332-6.599-12.674 1.647-2.29 2.406-5.105 2.106-7.957-.621-5.911-5.566-10.369-11.503-10.369m0 2c4.84 0 8.996 3.658 9.514 8.578.312 2.97-.77 5.764-2.716 7.735 4.038 4.59 6.48 11.007 7.313 13.355 1.048 2.957 2.192 8.566 1.908 11.126-.285 2.56-2.435 7.696-8.231 10.311-2.267 1.024-4.744 1.928-7.508 2.678.267.15.526.316.762.517 3.691 3.126 12.194 10.956 14.553 18.585.821 2.658.58 4.679-.199 6.224l.746 1.212c.217.474.185 1.037-.097 1.483-.287.451-.777.721-1.313.721-.294 0-.581-.083-.83-.241-.138-.088-.26-.196-.363-.322l-.244-.379c-.047.037-.096.069-.144.104l.325 1.11c.08.514-.105 1.045-.497 1.397-.286.255-.653.395-1.036.395-.441 0-.863-.188-1.157-.516-.11-.123-.198-.262-.264-.412l-.15-.513c0 .001-.001.001-.001.001-.089.033-.181.047-.27.072-.089.275-.245.527-.473.717-.278.231-.631.358-.992.358-.464 0-.9-.204-1.195-.559-.105-.127-.189-.268-.249-.42l-.169-.666c-.437-.325-.814-.741-1.074-1.255l-.079-.157c-.104.101-.222.192-.36.259-.188.089-.387.131-.582.131-.505 0-.99-.283-1.222-.769-.09-.188-.128-.386-.128-.581h-.005l-.001-1.105h.005c0-.466.246-.906.666-1.155l-1.168-2.311c.004.998-.028 1.948-.105 2.824-.411 4.696-2.172 7.47-4.797 9.042-.418 1.498-1.275 2.828-2.429 3.838l-.458 3.865c-.052.444.024.893.219 1.295.753 1.555-.381 3.359-2.104 3.359h-.021l-10.463-.091c-1.276-.01-2.308-1.044-2.318-2.32l-.563-2.875c-.104.015-.208.022-.311.022-1.086 0-2.118-.757-2.312-1.959l-.916-5.661c-2.852-1.375-4.847-3.579-5.463-7.15l-.188.354c-.271.509-.657.917-1.1 1.233l-.183.664c-.063.151-.149.289-.257.413-.295.341-.723.536-1.174.536-.373 0-.734-.135-1.016-.38-.225-.194-.375-.45-.459-.725-.089-.028-.18-.043-.268-.078h-.001l-.159.505c-.069.151-.161.288-.274.41-.293.313-.707.493-1.136.493-.394 0-.77-.148-1.059-.417-.385-.36-.559-.896-.468-1.409l.348-1.101c-.049-.037-.098-.071-.146-.108l-.246.374c-.106.124-.231.23-.372.315-.242.148-.52.225-.803.225-.548 0-1.045-.28-1.329-.748-.272-.45-.294-1.01-.07-1.479l.78-1.187c-.752-1.563-.956-3.593-.077-6.243 1.984-5.98 7.79-11.999 11.998-15.773-4.586-.616-8.62-2.185-12.453-5.753-6.746-6.28-5.521-14.805-4.752-18.894.383-2.041 1.038-4.558 2.526-7.33-2.881-1.035-5.218-3.424-6.042-6.612-1.323-5.122 1.756-10.347 6.878-11.67.802-.207 1.607-.306 2.399-.306 4.096 0 7.843 2.654 9.119 6.698 5.235-2.473 11.057-3.05 15.518-3.05 1.264 0 2.419.047 3.42.109 0 0 .169.006.449.024.28-4.587 3.828-8.437 8.549-8.934.341-.035.679-.053 1.014-.053" fill="#000" fill-rule="nonzero"/></g></svg>